Coordinates
version=1
nRows=11
nColumns=40
inDegrees=yes

Units are S.I. units (second, meters, Newtons, ...)
Angles are in degrees.

endheader
time	pelvis_tilt	pelvis_list	pelvis_rotation	pelvis_tx	pelvis_ty	pelvis_tz	hip_flexion_r	hip_adduction_r	hip_rotation_r	knee_angle_r	knee_angle_r_beta	ankle_angle_r	subtalar_angle_r	mtp_angle_r	hip_flexion_l	hip_adduction_l	hip_rotation_l	knee_angle_l	knee_angle_l_beta	ankle_angle_l	subtalar_angle_l	mtp_angle_l	lumbar_extension	lumbar_bending	lumbar_rotation	arm_flex_r	arm_add_r	arm_rot_r	elbow_flex_r	pro_sup_r	wrist_flex_r	wrist_dev_r	arm_flex_l	arm_add_l	arm_rot_l	elbow_flex_l	pro_sup_l	wrist_flex_l	wrist_dev_l
      9.36000000	     -7.95258251	     -5.01561362	     -1.18980972	      0.95663148	      0.92864249	      0.43877730	     35.98823921	     -6.16538939	     -7.53506174	     70.51547511	     70.51547511	      4.74080170	    -16.79462477	      3.05097890	     19.67139965	     -6.69326920	     -9.78657068	     21.78895660	     21.78895660	     12.35669424	     -8.26061070	     -0.84655296	    -12.72969844	      4.34382184	      0.71398099	      5.65119899	    -15.42795392	     -2.73711232	     90.98027863	     44.83446130	      0.00000000	      0.00000000	      9.57298354	    -13.51816105	     -0.99289356	     49.35485137	     45.68299092	      0.00000000	      0.00000000
      9.37121429	     -7.83223081	     -5.08067486	     -1.55902140	      0.95578095	      0.92938842	      0.43868037	     37.17811821	     -5.80242371	     -7.23497899	     69.56812513	     69.56812513	      4.66795191	    -16.43972925	      2.87397856	     18.69356038	     -6.75808186	    -10.02173414	     21.31861244	     21.31861244	     12.61632194	     -8.31993005	     -0.86811682	    -12.97004102	      4.48113424	      1.44100940	      3.39444774	    -15.77688422	     -2.95634090	     87.53070246	     44.94733217	      0.00000000	      0.00000000	     11.44274730	    -13.64291151	     -1.17786562	     51.10315141	     45.75492220	      0.00000000	      0.00000000
      9.38242857	     -7.70069917	     -5.14158633	     -1.88786680	      0.95499356	      0.93010932	      0.43857903	     38.19760362	     -5.43308479	     -6.98013907	     68.39569220	     68.39569220	      4.46637043	    -16.10484815	      2.53070852	     17.72935379	     -6.79428961	    -10.19179399	     20.87223940	     20.87223940	     12.82928547	     -8.42084532	     -0.97944589	    -13.17843165	      4.58600736	      1.84575358	      1.86426974	    -15.44796980	     -3.85491093	     82.70879882	     45.13025019	      0.00000000	      0.00000000	     12.95425694	    -14.01404043	     -1.24459508	     53.33823381	     45.83029231	      0.00000000	      0.00000000
      9.39364286	     -7.60703984	     -5.23557613	     -2.18299646	      0.95420629	      0.93067504	      0.43851926	     39.10757022	     -5.05997883	     -6.83926688	     66.98607795	     66.98607795	      3.91725032	    -15.86256490	      1.39712102	     16.78761209	     -6.83951320	    -10.30900756	     20.34212348	     20.34212348	     12.88385921	     -8.64968438	     -1.38483624	    -13.31914705	      4.72405791	      1.22536824	      1.73412061	    -14.69869050	     -4.14177110	     76.39998454	     45.34503145	      0.00000000	      0.00000000	     13.28239993	    -14.98934181	     -1.83710374	     56.98306396	     46.10967056	      0.00000000	      0.00000000
      9.40485714	     -7.52615768	     -5.33831452	     -2.47005052	      0.95341796	      0.93114241	      0.43852687	     39.92204162	     -4.65498473	     -6.72683819	     65.39302795	     65.39302795	      3.72884147	    -15.39322330	      1.40829849	     15.90546636	     -6.91560165	    -10.47873963	     19.90372279	     19.90372279	     13.10414829	     -8.69559655	     -1.48350881	    -13.47313603	      4.88437429	      1.47989946	      0.83763437	    -14.37709178	     -5.03108200	     71.08410815	     45.54257618	      0.00000000	      0.00000000	     14.71580434	    -15.35578246	     -2.07892517	     59.01507672	     46.22754397	      0.00000000	      0.00000000
      9.41607143	     -7.47924300	     -5.43152206	     -2.73974910	      0.95265489	      0.93144777	      0.43860622	     40.62380811	     -4.26909911	     -6.68862702	     63.52171406	     63.52171406	      3.49584428	    -14.86436270	      1.38749294	     15.06380817	     -6.97943786	    -10.65441620	     19.45895273	     19.45895273	     13.31692639	     -8.73227894	     -1.65218398	    -13.59071450	      5.02942370	      1.61270980	      0.23130704	    -14.12283605	     -5.72941315	     65.62953867	     45.73579451	      0.00000000	      0.00000000	     15.88961977	    -15.77563732	     -2.41004150	     61.44213317	     46.35395738	      0.00000000	      0.00000000
      9.42728571	     -7.40916462	     -5.50580267	     -2.99003289	      0.95196140	      0.93163733	      0.43871608	     41.13857041	     -3.89856062	     -6.67605793	     61.35652427	     61.35652427	      3.37336984	    -14.18115802	      1.46396563	     14.20538754	     -7.02242870	    -10.83387326	     19.03850160	     19.03850160	     13.56821723	     -8.72531317	     -1.73799969	    -13.79559108	      5.19284331	      2.27438814	     -1.23101917	    -14.47085395	     -5.88481174	     62.06473829	     45.84993953	      0.00000000	      0.00000000	     17.50597275	    -15.76957485	     -2.74882789	     63.57500761	     46.44340826	      0.00000000	      0.00000000
      9.43850000	     -7.37847488	     -5.53971761	     -3.21790068	      0.95136506	      0.93163970	      0.43894225	     41.53594010	     -3.58520915	     -6.73688977	     58.88723493	     58.88723493	      3.19650391	    -13.39163937	      1.44095915	     13.38378412	     -7.02783005	    -11.04260549	     18.60570862	     18.60570862	     13.79977185	     -8.66572675	     -1.94527202	    -13.89617812	      5.29224133	      2.66782699	     -2.02464750	    -14.46958649	     -6.41414923	     57.20031832	     46.02468052	      0.00000000	      0.00000000	     18.80914953	    -15.98455401	     -2.98819483	     66.06513429	     46.53199085	      0.00000000	      0.00000000
      9.44971429	     -7.50651238	     -5.58940057	     -3.34009870	      0.95086880	      0.93133797	      0.43911133	     41.88512190	     -3.29250257	     -6.90988370	     56.03836795	     56.03836795	      2.91974112	    -12.58313844	      0.99101220	     12.71498405	     -7.03580412	    -11.18318313	     18.09352719	     18.09352719	     13.87983885	     -8.54758285	     -2.37176533	    -13.67431595	      5.43250259	      1.80650726	     -1.26030150	    -13.82616423	     -7.56189423	     49.96664659	     46.30139987	      0.00000000	      0.00000000	     19.04034510	    -16.91133078	     -3.41417636	     69.27132757	     46.66658757	      0.00000000	      0.00000000
      9.46092857	     -7.49365146	     -5.60061522	     -3.49169923	      0.95052739	      0.93111884	      0.43947494	     41.85543223	     -3.07394971	     -7.24754162	     52.78867285	     52.78867285	      2.57872394	    -11.55983221	      0.52337014	     11.89162034	     -7.00686654	    -11.32998969	     17.62448364	     17.62448364	     14.08237846	     -8.48150987	     -2.75541989	    -13.75420512	      5.45694752	      1.74776076	     -1.42675563	    -13.79751405	     -8.05885800	     44.86114652	     46.46872442	      0.00000000	      0.00000000	     19.69349796	    -17.36833077	     -4.31094329	     72.39455856	     46.84318165	      0.00000000	      0.00000000
      9.47214286	     -7.46415347	     -5.47819163	     -3.60646140	      0.95033503	      0.93064678	      0.43973594	     41.71905021	     -3.00037339	     -7.55603507	     49.40640105	     49.40640105	      2.41401788	    -10.19355205	      0.52390655	     11.04741829	     -6.82296641	    -11.56126044	     17.16173286	     17.16173286	     14.39290359	     -8.29930119	     -2.98306372	    -13.83752501	      5.41480571	      2.19911491	     -2.79079498	    -14.13040452	     -8.20473086	     42.04264793	     46.55697316	      0.00000000	      0.00000000	     20.97448288	    -17.21091396	     -4.60845501	     74.82275305	     46.93440433	      0.00000000	      0.00000000
